<?xml version="1.0" encoding="utf-8"?>
<!-- Generator: Adobe Illustrator 26.1.0, SVG Export Plug-In . SVG Version: 6.00 Build 0)  -->
<svg version="1.1" id="Layer_1" xmlns="http://www.w3.org/2000/svg" xmlns:xlink="http://www.w3.org/1999/xlink" x="0px" y="0px"
	 viewBox="0 0 24 24" style="enable-background:new 0 0 24 24;" xml:space="preserve">
<style type="text/css">
	.st0{fill:#FFFFFF;}
</style>
<g>
	<path class="st0" d="M22.56,16.3L14.89,3.58c-1.02-1.6-3.14-2.06-4.74-1.04C9.73,2.81,9.38,3.16,9.11,3.58L1.44,16.3
		c-0.55,0.92-0.57,2.06-0.05,3c0.6,1.06,1.73,1.7,2.94,1.7h15.34c1.21,0.01,2.33-0.62,2.94-1.66C23.15,18.39,23.13,17.23,22.56,16.3
		z M12,17c-0.55,0-1-0.45-1-1c0-0.55,0.45-1,1-1s1,0.45,1,1C13,16.55,12.55,17,12,17z M13,13c0,0.55-0.45,1-1,1s-1-0.45-1-1V9
		c0-0.55,0.45-1,1-1s1,0.45,1,1V13z"/>
</g>
</svg>
