<?xml version="1.0" encoding="utf-8"?>
<!-- Generator: Adobe Illustrator 26.1.0, SVG Export Plug-In . SVG Version: 6.00 Build 0)  -->
<svg version="1.1" id="Layer_1" xmlns="http://www.w3.org/2000/svg" xmlns:xlink="http://www.w3.org/1999/xlink" x="0px" y="0px"
	 viewBox="0 0 29.48 24.34" style="enable-background:new 0 0 29.48 24.34;" xml:space="preserve">
<style type="text/css">
	.st0{fill:#E23434;}
</style>
<path class="st0" d="M18.16,20.39h-8.15c-1.06,0-1.92-0.86-1.92-1.92c0,0,0,0,0,0V6.36c0-0.33,0.27-0.6,0.6-0.6h10.8
	c0.33,0,0.6,0.27,0.6,0.6v12.12C20.08,19.54,19.22,20.39,18.16,20.39L18.16,20.39z M9.29,6.96v11.52c0,0.4,0.33,0.72,0.72,0.72
	c0,0,0,0,0,0h8.15c0.4,0,0.72-0.32,0.72-0.72c0,0,0,0,0,0V6.96H9.29z"/>
<path class="st0" d="M20.73,6.96H7.44c-0.33,0-0.6-0.27-0.6-0.6c0-0.33,0.27-0.6,0.6-0.6h13.29c0.33,0,0.6,0.27,0.6,0.6
	C21.33,6.69,21.06,6.96,20.73,6.96z"/>
<path class="st0" d="M11.78,6.96c-0.33,0-0.6-0.27-0.6-0.6V4.59C11.19,3.71,11.9,3,12.77,3h1.31c0.33,0,0.6,0.27,0.6,0.6
	s-0.27,0.6-0.6,0.6h-1.31c-0.21,0-0.39,0.17-0.39,0.39v1.77C12.38,6.69,12.12,6.96,11.78,6.96L11.78,6.96z"/>
<path class="st0" d="M16.39,6.96c-0.33,0-0.6-0.27-0.6-0.6V4.59c0-0.21-0.17-0.39-0.39-0.39h-1.31c-0.33,0-0.6-0.27-0.6-0.6
	S13.75,3,14.09,3h1.31c0.88,0,1.58,0.71,1.59,1.59v1.77C16.98,6.69,16.72,6.96,16.39,6.96L16.39,6.96z"/>
</svg>
