<?xml version="1.0" encoding="utf-8"?>
<!-- Generator: Adobe Illustrator 26.1.0, SVG Export Plug-In . SVG Version: 6.00 Build 0)  -->
<svg version="1.1" id="Layer_1" xmlns="http://www.w3.org/2000/svg" xmlns:xlink="http://www.w3.org/1999/xlink" x="0px" y="0px"
	 viewBox="0 0 71.23 71.23" style="enable-background:new 0 0 71.23 71.23;" xml:space="preserve">
<style type="text/css">
	.st0{fill:#BF8A00;}
</style>
<path class="st0" d="M44.83,67.01c-0.82,0-1.64-0.31-2.27-0.94l-29.1-29.1c-1.03-1.03-1.8-2.98-1.75-4.43l0.61-17.62
	c0.08-1.75,1.49-3.15,3.24-3.24l3.79-0.11c0.56,0,1.08,0.44,1.1,1.03c0.02,0.59-0.44,1.08-1.03,1.11l-3.79,0.11
	c-0.63,0.04-1.13,0.55-1.18,1.17l-0.61,17.62c-0.03,0.87,0.51,2.23,1.13,2.85l29.1,29.1c0.42,0.42,1.09,0.42,1.51,0l19.62-19.63
	c0.2-0.2,0.31-0.47,0.31-0.76s-0.11-0.56-0.31-0.76l-29.1-29.09c-0.62-0.62-1.94-1.22-2.85-1.12l-8.41,0.29
	c-0.62-0.04-1.08-0.44-1.11-1.03c-0.02-0.59,0.44-1.08,1.03-1.11l8.41-0.29c1.48,0,3.41,0.72,4.43,1.75l29.1,29.09
	c0.6,0.6,0.94,1.41,0.94,2.27c0,0.86-0.33,1.66-0.94,2.27L47.09,66.08C46.49,66.68,45.67,67.01,44.83,67.01z"/>
<path class="st0" d="M24.9,30.45c-3.53,0-6.4-2.87-6.4-6.4c0-2.27,1.18-4.33,3.16-5.5c0.51-0.3,1.16-0.13,1.46,0.38
	c0.3,0.51,0.13,1.16-0.38,1.46l0,0c-1.31,0.76-2.11,2.15-2.11,3.66c0,2.35,1.92,4.27,4.27,4.27s4.27-1.92,4.27-4.27
	c0-1.97-1.35-3.66-3.27-4.13c-0.57-0.14-0.93-0.72-0.79-1.29c0.14-0.57,0.72-0.93,1.29-0.79l0,0c2.88,0.68,4.91,3.25,4.9,6.2
	C31.31,27.58,28.43,30.45,24.9,30.45z M35.09,38.11c-0.59,0.6-1.25,0.96-2,1.06c-0.52,0.08-1.04-0.02-1.49-0.28
	c-0.3-0.17-0.57-0.37-0.81-0.62c-0.5-0.51-0.8-1.05-0.88-1.64c-0.07-0.51-0.01-1.02,0.18-1.5c0.21-0.55,0.53-1.06,0.93-1.5
	l0.51,0.44c0.44,0.38,0.55,1.1,0.23,1.59c0,0-0.1,0.15-0.11,0.58c-0.03,0.29,0.08,0.58,0.29,0.77c0.29,0.28,0.66,0.36,1.1,0.26
	c0.27-0.07,0.51-0.23,0.69-0.44c0.36-0.35,0.55-0.87,0.58-1.54l-0.06-2.24c-0.01-0.84,0.05-1.52,0.2-2.02
	c0.18-0.56,0.48-1.06,0.92-1.49c0.78-0.77,1.63-1.11,2.56-0.98c0.57,0.08,1.09,0.36,1.56,0.84c0.46,0.46,0.75,0.96,0.88,1.49
	c0.09,0.42,0.08,0.85-0.05,1.29c-0.15,0.47-0.39,0.9-0.71,1.28l-0.58-0.4c-0.48-0.34-0.66-0.95-0.39-1.37l0.03-0.36
	c0.02-0.26-0.08-0.5-0.3-0.72c-0.21-0.23-0.55-0.32-0.85-0.22c-0.3,0.08-0.57,0.25-0.78,0.48c-0.39,0.39-0.63,0.96-0.69,1.7
	c-0.03,0.28-0.02,0.66,0.03,1.12c0.05,0.55,0.07,0.93,0.07,1.12c0.01,0.57-0.06,1.13-0.21,1.68c-0.06,0.2-0.12,0.4-0.2,0.6
	C35.57,37.47,35.36,37.81,35.09,38.11z M38.37,41.72c-0.37-0.37-1.06-0.39-1.54-0.05l-0.55,0.4c-0.48,0.34-1.17,0.32-1.54-0.04
	c-0.37-0.37-0.28-0.95,0.2-1.29l8.28-5.87c0.51-0.34,1.18-0.28,1.63,0.14l0.27,0.26c0.42,0.44,0.47,1.12,0.13,1.62l-5.89,8.26
	c-0.34,0.48-0.93,0.57-1.3,0.19s-0.4-1.07-0.05-1.54l0.4-0.55C38.75,42.78,38.73,42.09,38.37,41.72z M42.36,37.94
	c0.35-0.47,0.26-0.56-0.21-0.21L40,39.34c-0.47,0.35-0.64,0.86-0.38,1.12c0.26,0.26,0.77,0.1,1.12-0.37
	C40.75,40.09,42.36,37.94,42.36,37.94z M44.35,50.35c-0.35,0.35-0.98,0.3-1.4-0.11l-2.01-2.01c-0.41-0.42-0.41-1.09,0-1.51
	l7.05-7.05c0.41-0.41,1.05-0.46,1.4-0.11c0.35,0.36,0.31,0.99-0.11,1.4l-5.77,5.77c-0.41,0.42-0.41,1.09,0,1.51l0.72,0.72
	C44.65,49.37,44.7,50,44.35,50.35z M45.71,53c-0.41-0.42-0.41-1.09,0-1.51l7.06-7.06c0.42-0.41,1.09-0.41,1.51,0l2.17,2.17
	c0.41,0.41,0.46,1.05,0.1,1.4c-0.36,0.36-0.99,0.31-1.4-0.1l-0.88-0.87c-0.42-0.41-1.09-0.41-1.51,0l-0.83,0.82
	c-0.41,0.42-0.42,1.09,0,1.51l0.23,0.23c0.41,0.42,0.46,1.05,0.1,1.4c-0.36,0.36-0.99,0.31-1.4-0.11l-0.23-0.23
	c-0.42-0.41-1.09-0.41-1.51,0l-0.83,0.83c-0.41,0.42-0.41,1.09,0,1.51l0.88,0.88c0.41,0.41,0.46,1.05,0.1,1.4
	c-0.36,0.36-0.99,0.31-1.4-0.11C47.88,55.17,45.71,53,45.71,53z"/>
<path class="st0" d="M20.29,26.66c-0.59,0-1.07-0.48-1.07-1.07c0-0.47,0.31-0.88,0.75-1.02c1.04-0.31,1.99-0.87,2.76-1.64
	c3.21-3.21,2.45-9.18-1.68-13.31c-2.03-2.03-4.56-3.31-7.12-3.6c-2.47-0.28-4.66,0.4-6.19,1.93c-3.2,3.21-2.45,9.18,1.68,13.31
	c0.14,0.14,0.28,0.27,0.42,0.4c0.43,0.4,0.46,1.07,0.06,1.51c-0.4,0.43-1.07,0.46-1.51,0.06l0,0c-0.17-0.15-0.33-0.31-0.49-0.47
	C2.96,17.8,2.21,10.47,6.25,6.44c1.99-1.99,4.8-2.9,7.94-2.54c3.04,0.34,6.02,1.84,8.39,4.21c4.96,4.96,5.72,12.29,1.68,16.33
	c-1.02,1.01-2.27,1.76-3.65,2.17C20.5,26.64,20.4,26.66,20.29,26.66z"/>
</svg>
